<svg xmlns="http://www.w3.org/2000/svg" viewBox="0 0 793.18 791.63"><defs><style>.cls-1{fill:#fff;}</style></defs><g id="Capa_2" data-name="Capa 2"><g id="Capa_3" data-name="Capa 3"><path class="cls-1" d="M0,353.78c3.65-16.62,7-33.31,11-49.84C54.71,123.38,213.27-.58,399.61,0,581.08.57,743.89,127.35,782.79,305.94,842.67,580.88,633.28,780,423,791.09,218.25,801.86,33.23,651,3.88,447.6c-.54-3.73.38-8.11-3.88-10.5Zm395.54-322C192.49,31.77,32,191,31.74,392.63c-.24,205.17,163.86,368.17,371.5,369,192.79.78,358.09-165.94,359.15-362.24C763.5,194.86,600.73,31.74,395.54,31.76Z"/><path class="cls-1" d="M336.29,536.75c0-29.62-.61-59.26.24-88.86C337,431.94,331.58,425,315,424.77c-39.28-.66-39.27-1.18-39.27-40.56,0-2.52,0-5,0-7.56-.18-38.48-2.44-40,37.34-39.8,16.65.08,23.84-6.35,23.47-23.68-.62-29.07,2-57.93,14.49-84.9,18.2-39.16,49-59.58,92.07-61.1,20.77-.73,41.58-.32,62.37-.8,8.81-.21,14.42,1.61,14.4,12.17,0,19.51.54,39,1.22,58.54.41,11.86-4.16,17.93-16.67,16.43-2.48-.29-5,.08-7.55,0-52.13-2.54-64,16.52-64.2,69.5,0,11,4.72,14.14,14.92,13.88,13.9-.35,32.82.32,56.72-.14,11.77-.22,17.31,4.08,16.88,16.56-.63,18.26-.6,36.56,0,54.82.42,13.26-5.21,17.79-18.1,17.11-15.71-.82-31.54.52-47.25-.38-17-1-23.5,5.72-23.3,23,.67,58.61-.44,117.24.63,175.83.35,19.15-5.52,26.17-24.76,24.3-15.6-1.53-31.48-.29-47.23-.32-24.42,0-24.82-.39-24.88-25.77C336.23,593.47,336.29,565.11,336.29,536.75Z"/></g></g></svg>