<svg xmlns="http://www.w3.org/2000/svg" viewBox="0 0 789.82 791.45"><defs><style>.cls-1{fill:#fff;}</style></defs><g id="Capa_2" data-name="Capa 2"><g id="Capa_3" data-name="Capa 3"><path class="cls-1" d="M373.24,791.45c-19.9-3.72-39.93-6.9-59.7-11.25C148.73,743.85,17.8,601.7,1.88,433.82-21.79,184.33,182.38,1.83,387.34,0c203.56-1.8,378.76,151.85,399,354.35.32,3.2-.08,6.69,3.46,8.59v63.48c-3.28,3-3.07,7.06-3.51,11-19.65,170.87-148,311.1-315.57,345.39-16.58,3.39-33.92,2-49.89,8.66Zm385.36-395C761.16,203.2,599.59,35.38,410,29.87c-206.63-6-377.64,162.3-379.86,358.34-2.27,199.37,161.7,369,359,371.49C592.31,762.3,755.89,601.5,758.6,396.5Z"/><path class="cls-1" d="M392.52,610.3c-32.27,0-64.65,1.75-96.77-.35C220.48,605,182.29,570.33,172,496a773,773,0,0,1,2-228.54c9.36-58.74,46-93.41,105.4-99.91,75.66-8.28,151.54-7.48,227.2-.06,60.4,5.93,104.62,51.4,108.72,112.26,4.81,71.55,5.41,143.3.46,214.87-4.57,66.18-51.24,111.66-117.52,114.9-35.16,1.72-70.48.31-105.73.31ZM216.36,387.58h.15c0,33.46-1.28,67,.31,100.37,2.23,46.81,28.77,74.38,75.49,77.29,65.58,4.09,131.31,6.55,197,.47,50.77-4.71,79.26-27.55,81.53-73.92,3.38-69.15,5.64-138.68-1.45-207.76-4.82-47-30.54-69.15-77.63-73.38-65.09-5.84-130.2-2.61-195.16,1.11-52.29,3-77.23,29.7-79.91,82.62C215.07,325.37,216.36,356.51,216.36,387.58Z"/><path class="cls-1" d="M278.08,385.82C278,324,330.25,271.3,391.6,271.25c64.93-.06,117.65,52,118,116.61.39,64.36-52.9,117.68-117.26,117.32C327.77,504.83,278.16,453,278.08,385.82ZM323,388.2c.14,38.55,32,72.35,67.74,71.93,42.34-.49,74.08-32.17,73.95-73.8-.13-37.46-33.51-69.58-72.31-69.57C353.32,316.77,322.89,348.11,323,388.2Z"/><path class="cls-1" d="M512.24,240.21c14.56.11,28.15,14,28.47,29.17.34,15.91-11.71,27.92-28.23,28.16s-29.31-11.47-29.61-27S496.88,240.09,512.24,240.21Z"/></g></g></svg>