<svg xmlns="http://www.w3.org/2000/svg" viewBox="0 0 785.72 787.77"><defs><style>.cls-1{fill:#fff;}</style></defs><g id="Capa_2" data-name="Capa 2"><g id="Capa_3" data-name="Capa 3"><path class="cls-1" d="M785.72,417.71c-7.56,25.78-8.19,52.79-15.26,78.81-50.37,185.49-221.8,306-413.57,289.8C186.37,771.94,29.48,624.27,4.37,454.51-26.43,246.28,108.56,48.58,315.17,8c244-47.9,447.13,125.27,467,345.37.4,4.39-1.07,9.46,3.53,12.74ZM30,385.21c-6.58,195,151.5,371.62,367.9,373.41,187.74,1.55,353.31-165.94,356.62-354.47C758.08,199.62,602.24,34,398.79,30.1,198.06,26.27,31.07,189.17,30,385.21Z"/><path class="cls-1" d="M163.82,514.93V272.79a16.58,16.58,0,0,0,1.33-2.71c11.14-40.14,35.35-58.87,76.38-58.88q152.6,0,305.18,0c43.1,0,74.34,29.86,74.73,72.89q1,110.37,0,220.75c-.27,39.65-31.45,71.41-69.86,71.53q-159.19.47-318.41,0c-22.82,0-41.63-10.13-54.45-28.71C172.05,538,168.69,525.92,163.82,514.93ZM581.14,272.82c-4.06,2.86-6.87,4.68-9.51,6.72q-81.53,63.25-163,126.55c-12.81,9.94-18.92,10-31.64.13q-81.12-62.93-162.23-125.9c-3-2.34-6.15-4.52-10.44-7.65-.67,5.53-1.5,9.16-1.5,12.8q-.12,108.36,0,216.7c0,21.75,13.78,35.48,35.69,35.5q154.13.18,308.26,0c22.43,0,35.92-13.8,35.94-36.33q.15-107.34,0-214.67C582.65,282.47,581.76,278.26,581.14,272.82Zm-188.41,96.3,152.4-118.33H240.29Z"/></g></g></svg>