<svg xmlns="http://www.w3.org/2000/svg" viewBox="0 0 785.72 787.77"><defs><style>.cls-1{fill:#fff;}</style></defs><g id="Capa_2" data-name="Capa 2"><g id="Capa_3" data-name="Capa 3"><path class="cls-1" d="M785.72,417.71c-7.56,25.78-8.19,52.79-15.26,78.81-50.37,185.49-221.8,306-413.57,289.8C186.37,771.94,29.48,624.27,4.37,454.51-26.43,246.28,108.56,48.58,315.17,8c244-47.9,447.13,125.27,467,345.37.4,4.39-1.07,9.46,3.53,12.74ZM30,385.21c-6.58,195,151.5,371.62,367.9,373.41,187.74,1.55,353.31-165.94,356.62-354.47C758.08,199.62,602.24,34,398.79,30.1,198.06,26.27,31.07,189.17,30,385.21Z"/><path class="cls-1" d="M585.21,264c10.21,5,18-4,28.55-.73-3,10.78-8.82,20.14-17.35,26.23-19.32,13.79-21.87,33.29-24.26,54.82-9.54,86.15-48.74,155.51-125.52,198-80,44.3-162.91,46-245.5,4.66-4.71-2.36-13.14-3.56-11.48-11,1.71-7.72,9.71-4.65,15-4.52,31.14.8,59.75-7.47,86.4-23.13,3.27-1.92,8.32-3.17,7.51-8.29-.67-4.19-5.43-3.78-8.48-4.92-20.62-7.74-38.47-19-50.68-38-10.3-16-9.61-18.81,9-27-8.9-7.83-17.54-15.09-25.78-22.77-12.7-11.84-20.53-26.73-24.72-43.33-4.26-16.87.61-20.95,17.34-15.74,2.66.83,5.56.91,12.52,2-21.08-23.05-31.92-46.89-29.39-75.32.15-1.73,0-3.52.28-5.22,2.13-11.16.22-26.26,12.13-30.62,9.86-3.61,16,9.51,22.81,16.13,38.42,37.2,84.69,58.38,136.58,68.85,15.34,3.1,19.67-4.61,20.89-17.72,3.08-33.11,16.41-60.67,46.13-77.67,30.24-17.3,62.37-17.91,91.13.8,21,13.63,38.66,11.52,58.28,1.26,5-2.63,10.4-7.91,15.52-2.06,4.85,5.53-.24,10.85-3.36,15.6C594.38,251,589.8,257.37,585.21,264Z"/></g></g></svg>