<svg xmlns="http://www.w3.org/2000/svg" viewBox="0 0 789.82 791.45"><defs><style>.cls-1{fill:#fff;}</style></defs><g id="Capa_2" data-name="Capa 2"><g id="Capa_3" data-name="Capa 3"><path class="cls-1" d="M373.24,791.45c-19.9-3.72-39.93-6.9-59.7-11.25C148.73,743.85,17.8,601.7,1.88,433.82-21.79,184.33,182.38,1.83,387.34,0c203.56-1.8,378.76,151.85,399,354.35.32,3.2-.08,6.69,3.46,8.59v63.48c-3.28,3-3.07,7.06-3.51,11-19.65,170.87-148,311.1-315.57,345.39-16.58,3.39-33.92,2-49.89,8.66Zm385.36-395C761.16,203.2,599.59,35.38,410,29.87c-206.63-6-377.64,162.3-379.86,358.34-2.27,199.37,161.7,369,359,371.49C592.31,762.3,755.89,601.5,758.6,396.5Z"/><path class="cls-1" d="M178.39,611.56c2.53-9.72,4.76-18.57,7.14-27.39q10.53-39,21.22-78a22.07,22.07,0,0,0-1.6-16.67c-19.9-38.69-28.49-79.71-24.82-123.11a219.2,219.2,0,0,1,44.85-116.61c22.58-29.65,50.83-52.32,84.95-67.27,52.61-23.05,106.54-27.68,161.59-9.49,59,19.52,102.61,57.53,130.43,112.86,23,45.78,28.57,94.35,18.31,144.57-9,44.09-29.55,82.16-61.53,113.79Q507.17,595.49,434.86,606c-45.81,6.65-89.47-.36-131.11-20.43a24.09,24.09,0,0,0-17.22-1.82C250.87,593,215.14,602.11,178.39,611.56ZM589.75,397c-.4-45.34-8.6-77.29-26.11-106.44C535,242.74,493.22,212.85,438.5,201.69c-36-7.35-71.15-3.57-105.26,9.85-33.22,13.08-60.32,34.28-81.42,63s-33.43,61.31-36.15,97c-2.88,37.83,5.63,73.22,24.49,106.18,5.77,10.08,7.1,20.87,3.24,32.07-5.17,15-8.66,30.49-12.78,45.8-1.42,5.25.13,5.41,4.42,4.26,17.9-4.79,35.94-9.09,53.73-14.26,8.2-2.38,15.1-1.28,22.41,2.79,49.87,27.7,101.87,31.66,155.44,12.51C540.11,534.65,589.91,463.4,589.75,397Z"/><path class="cls-1" d="M462.83,492.08c-23.16-1.24-44.61-8.34-64.74-19.5C353.78,448,321.32,411.9,297.47,367.75c-14.41-26.67-9.11-58.08,12.49-79,6.77-6.56,22-8.56,30.19-4,2.18,1.2,3.24,3.22,4.2,5.29,6.74,14.57,13,29.33,18.49,44.43,2.24,6.2-1.14,11.18-4.42,15.87-2.85,4.06-6.18,7.78-9.38,11.58-3.5,4.14-4.08,8.53-1.32,13.22,17.73,30.18,42.61,52.24,75,65.57,8,3.29,10.92,2.25,16.38-4.39,4.85-5.91,9.48-12,14.48-17.77s7.32-6,14-2.85c13.42,6.46,26.78,13.06,40.27,19.4,5.43,2.56,7.31,6.34,6.86,12.35C513,469.81,498.21,486,474.21,490.86,470.48,491.63,466.71,492.43,462.83,492.08Z"/></g></g></svg>